<svg xmlns="http://www.w3.org/2000/svg" xmlns:xlink="http://www.w3.org/1999/xlink" width="175" height="175" viewBox="0 0 175 175">
  <defs>
    <linearGradient id="linear-gradient" x1="0.5" x2="0.5" y2="1" gradientUnits="objectBoundingBox">
      <stop offset="0" stop-color="#43a8eb"/>
      <stop offset="1" stop-color="#5246f2"/>
    </linearGradient>
    <linearGradient id="linear-gradient-2" x1="0.5" x2="0.5" y2="1" gradientUnits="objectBoundingBox">
      <stop offset="0" stop-color="#1492e6"/>
      <stop offset="1" stop-color="#2214e6"/>
    </linearGradient>
    <linearGradient id="linear-gradient-3" x1="0.5" x2="0.5" y2="1" gradientUnits="objectBoundingBox">
      <stop offset="0" stop-color="#ffbf00"/>
      <stop offset="1" stop-color="#ff9500"/>
    </linearGradient>
  </defs>
  <g id="程序猿正在努力开发中_" data-name="程序猿正在努力开发中~" transform="translate(-1225 -887)">
    <g id="组_176" data-name="组 176" transform="translate(1558.996 8582)">
      <path id="联合_114" data-name="联合 114" d="M-288,183a4,4,0,0,1,4-4,4,4,0,0,1,4,4,4,4,0,0,1-4,4A4,4,0,0,1-288,183Zm19-8a8,8,0,0,1,8-8,8,8,0,0,1,8,8,8,8,0,0,1-8,8A8,8,0,0,1-269,175Zm-62.011-10.55c-19.887-1.132-44.6-.849-57.388-22.353S-392.1,85.5-360.845,78.145-308,50.98-284.99,32.587-236.409,45.32-227.6,66.543s-5.682,20.657-5.966,31.409,20.172,20.94,13.069,35.088c-6.893,13.73-85.76,31.459-108.59,31.459C-329.784,164.5-330.427,164.483-331.015,164.45ZM-342,42a12,12,0,0,1,12-12,12,12,0,0,1,12,12,12,12,0,0,1-12,12A12,12,0,0,1-342,42Zm91-17a4,4,0,0,1,4-4,4,4,0,0,1,4,4,4,4,0,0,1-4,4A4,4,0,0,1-251,25Zm-15-9a4,4,0,0,1,4-4,4,4,0,0,1,4,4,4,4,0,0,1-4,4A4,4,0,0,1-266,16Z" transform="translate(60.004 -7707)" fill="#1492e6" opacity="0.1"/>
    </g>
    <g id="组_209" data-name="组 209" transform="translate(-779 2198)">
      <g id="组_208" data-name="组 208" transform="translate(2041 -1270)">
        <path id="联合_126" data-name="联合 126" d="M42.181,75l-1.6-9a63.457,63.457,0,0,1-8.83-2.235L20,69.51,9.15,63V50.292L0,49.692V25.309l9.15-.58v-12.7L20,5.457l11.755,5.777A64.064,64.064,0,0,1,40.585,9l1.6-9H57.819l1.6,9a78.238,78.238,0,0,1,8.829,2.235l11.7-5.777L90.9,12.032v12.7l9.1.58V49.692l-9.1.6V63L79.947,69.51l-11.7-5.744A69.62,69.62,0,0,1,59.414,66l-1.595,9Zm.3-37.482a21.836,21.836,0,0,0,7.623,1.226h0a21.822,21.822,0,0,0,7.616-1.229,21.8,21.8,0,0,0-7.616-1.229q-.2,0-.389,0a21.808,21.808,0,0,0-7.232,1.234Z" fill="url(#linear-gradient)"/>
        <path id="设置" d="M1.038,92.818c0-2.457,1.383-4.5,4.2-6.191a19.627,19.627,0,0,1,10.319-2.521,19.628,19.628,0,0,1,10.319,2.521c2.819,1.692,4.2,3.734,4.2,6.191s-1.383,4.532-4.2,6.223a19.628,19.628,0,0,1-10.319,2.521A19.521,19.521,0,0,1,5.24,99.042C2.408,97.326,1.038,95.244,1.038,92.818ZM-19.493,98.5a20.959,20.959,0,0,0,3.67,5.266l-9.575,7.053,10.851,6.511,11.754-5.745a63.425,63.425,0,0,0,8.83,2.234l1.6,9H23.272l1.6-9a69.652,69.652,0,0,0,8.83-2.234l11.7,5.745,10.958-6.511-9.628-7.053A24.413,24.413,0,0,0,50.453,98.5l15-.989V88.127l-15-.957A27,27,0,0,0,46.73,81.9l9.628-7.053L45.4,68.276,33.7,74.052a78.285,78.285,0,0,0-8.83-2.234l-1.6-9H7.634l-1.6,9a64.107,64.107,0,0,0-8.83,2.234l-11.754-5.777L-25.4,74.85l9.575,7.053a26.65,26.65,0,0,0-3.67,5.266l-15.053.957V97.51Z" transform="translate(34.547 -62.818)" fill="url(#linear-gradient-2)"/>
        <g id="组_207" data-name="组 207" transform="translate(0 12.044)">
          <path id="联合_126-2" data-name="联合 126" d="M84.361,135V120H100v15Z" transform="translate(-42.181 -72.044)" fill="#fffeff" opacity="0.15"/>
          <path id="联合_128" data-name="联合 128" d="M90.85,35.969l-5.9-4.053V23.65L100,22.661v15l-9.15.6ZM0,37.66v-15l15.053.99,0,8.266L9.15,35.969v2.293ZM85,12.319a26.665,26.665,0,0,0-3.724-5.267L90.9,0V12.7ZM9.15,0l9.574,7.053a26.018,26.018,0,0,0-3.67,5.265l-5.9.376V0Z" fill="#fff" opacity="0.1"/>
          <path id="联合_126-3" data-name="联合 126" d="M70.794,6.511,81.754,0V15L70.8,21.51ZM0,15V0L10.85,6.511v15Z" transform="translate(9.15 35.969)" fill="#fff" opacity="0.1"/>
        </g>
        <path id="联合_129" data-name="联合 129" d="M27.66,2.233A69.129,69.129,0,0,0,36.49,0l0,15a69.8,69.8,0,0,1-8.833,2.233ZM0,15V0A63.661,63.661,0,0,0,8.83,2.234v15A63.677,63.677,0,0,1,0,15Z" transform="translate(31.755 48.771)" fill="#300e89" opacity="0.08"/>
      </g>
      <path id="减去_48" data-name="减去 48" d="M81.572,59.717a18.949,18.949,0,0,1-3.466-.9,21.88,21.88,0,0,0,3.466.9Zm8.292-.012h0a21.884,21.884,0,0,0,3.425-.9A18.988,18.988,0,0,1,89.864,59.705Zm-11.8-.9h0a15.8,15.8,0,0,1-2.7-1.294,9.918,9.918,0,0,1-3.164-2.845A6.007,6.007,0,0,1,72.21,47.9,9.884,9.884,0,0,1,75.369,45.1a19.55,19.55,0,0,1,10.319-2.521A19.549,19.549,0,0,1,96.007,45.1,9.884,9.884,0,0,1,99.166,47.9a5.926,5.926,0,0,1,1.044,3.382,5.988,5.988,0,0,1-1.044,3.4,9.815,9.815,0,0,1-3.159,2.825A16.171,16.171,0,0,1,93.3,58.8a21.747,21.747,0,0,0-7.225-1.232c-.129,0-.261,0-.39,0s-.268,0-.389,0a21.76,21.76,0,0,0-7.231,1.234Z" transform="translate(2005.417 -1291.262)" fill="#1d12cc"/>
    </g>
    <g id="组_210" data-name="组 210" transform="translate(-595 2221)">
      <path id="路径_444" data-name="路径 444" d="M1835.465-1226.135c4.617.071,9.484-2.347,9.235-9.245s-3.931-8.6-4.18-13.156-.874-13.156-4.742-13.582-4.305,7.822-3.557,12.871-5.928,3.556-5.491,11.378S1830.848-1226.206,1835.465-1226.135Z" transform="translate(-0.709 0.134)" fill="#ffbf00"/>
      <path id="联合_130" data-name="联合 130" d="M3.989,35.2v-9c0-2.822.019-5.916.053-8.958l-.8-.983C1.947,14.659.285,12.293.441,12.1s2.071,1.861,3.371,3.464l.247.3c.052-4.1.132-8.006.228-10.92l-.247-.3a10.442,10.442,0,0,1-1.6-2.378c.091-.11,1.136,1.012,1.876,1.919A21.473,21.473,0,0,1,4.632,0c.183,0,.349,4.064.467,9.514l.572-.707c.928-1.146,2.3-2.613,2.408-2.475a13.16,13.16,0,0,1-2,2.975l-.758.936c-.03.037-.115-.005-.205-.1.086,4.288.146,9.338.16,13.923l.537-.663c1.392-1.72,3.444-3.917,3.612-3.713s-1.613,2.742-3.006,4.462l-1.136,1.4,0,0v9.643A.731.731,0,0,1,4.632,36a.731.731,0,0,1-.643-.794Z" transform="translate(1830.069 -1253)" fill="url(#linear-gradient-3)"/>
    </g>
    <g id="组_211" data-name="组 211" transform="translate(-450 2179)">
      <path id="路径_444-2" data-name="路径 444" d="M1832.547-1238.134c3.078.047,6.323-1.565,6.156-6.163s-2.621-5.736-2.787-8.771-.582-8.771-3.161-9.055-2.87,5.215-2.371,8.581-3.952,2.37-3.661,7.585S1829.468-1238.182,1832.547-1238.134Z" transform="translate(-0.709 0.134)" fill="#1492e6"/>
      <path id="联合_130-2" data-name="联合 130" d="M2.8,23.47v-6c0-1.881.013-3.944.035-5.972l-.531-.655A12.284,12.284,0,0,1,.438,8.066c.1-.129,1.381,1.241,2.247,2.31l.165.2c.035-2.73.088-5.337.152-7.28l-.165-.2A6.961,6.961,0,0,1,1.768,1.511c.061-.073.757.675,1.251,1.279A14.315,14.315,0,0,1,3.232,0a49.507,49.507,0,0,1,.311,6.342l.381-.471c.619-.764,1.531-1.742,1.605-1.65A8.773,8.773,0,0,1,4.193,6.2l-.505.624c-.02.025-.077,0-.137-.064.057,2.859.1,6.225.107,9.282l.358-.442c.928-1.147,2.3-2.612,2.408-2.475a13.191,13.191,0,0,1-2,2.974l-.757.936,0,0v6.429A.487.487,0,0,1,3.232,24a.487.487,0,0,1-.429-.529Z" transform="translate(1828.569 -1256)" fill="url(#linear-gradient-2)"/>
    </g>
  </g>
</svg>
